<svg xmlns="http://www.w3.org/2000/svg" width="800" height="800" viewBox="0 0 800 800">
  <defs><radialGradient id="g" cx="50%" cy="45%" r="80%"><stop offset="0%" stop-color="#1c1450"/><stop offset="100%" stop-color="#04030f"/></radialGradient></defs>
  <rect width="800" height="800" fill="url(#g)"/>
  <g opacity="0.9"><circle cx="400" cy="390" r="230" fill="none" stroke="#6a3fa0" stroke-width="1" stroke-dasharray="3 10" opacity="0.6"/><path d="M0 300 C 160 240, 240 360, 400 300 S 640 240, 800 300" fill="none" stroke="#2e2482" stroke-width="3" opacity="0.9" stroke-linecap="round"/><path d="M0 326 C 160 266, 240 386, 400 326 S 640 266, 800 326" fill="none" stroke="#6a3fa0" stroke-width="3" opacity="0.8300000000000001" stroke-linecap="round"/><path d="M0 352 C 160 292, 240 412, 400 352 S 640 292, 800 352" fill="none" stroke="#b45bff" stroke-width="3" opacity="0.76" stroke-linecap="round"/><path d="M0 378 C 160 318, 240 438, 400 378 S 640 318, 800 378" fill="none" stroke="#f4e3b0" stroke-width="3" opacity="0.69" stroke-linecap="round"/><path d="M0 404 C 160 344, 240 464, 400 404 S 640 344, 800 404" fill="none" stroke="#2e2482" stroke-width="3" opacity="0.62" stroke-linecap="round"/><path d="M0 430 C 160 370, 240 490, 400 430 S 640 370, 800 430" fill="none" stroke="#6a3fa0" stroke-width="3" opacity="0.55" stroke-linecap="round"/><path d="M0 456 C 160 396, 240 516, 400 456 S 640 396, 800 456" fill="none" stroke="#b45bff" stroke-width="3" opacity="0.48" stroke-linecap="round"/><path d="M0 482 C 160 422, 240 542, 400 482 S 640 422, 800 482" fill="none" stroke="#f4e3b0" stroke-width="3" opacity="0.41" stroke-linecap="round"/><path d="M0 508 C 160 448, 240 568, 400 508 S 640 448, 800 508" fill="none" stroke="#2e2482" stroke-width="3" opacity="0.33999999999999997" stroke-linecap="round"/><path d="M0 534 C 160 474, 240 594, 400 534 S 640 474, 800 534" fill="none" stroke="#6a3fa0" stroke-width="3" opacity="0.2699999999999999" stroke-linecap="round"/></g>
  <circle cx="400" cy="120" r="34" fill="#b45bff" opacity="0.5"/>
  <circle cx="210" cy="640" r="60" fill="#6a3fa0" opacity="0.18"/>
  <circle cx="600" cy="620" r="84" fill="#2e2482" opacity="0.16"/></svg>